<?xml version="1.0" standalone="no"?>
<!DOCTYPE svg PUBLIC "-//W3C//DTD SVG 1.1//EN" "http://www.w3.org/Graphics/SVG/1.1/DTD/svg11.dtd">
<svg version="1.1" width="1200" height="150" onload="init(evt)" viewBox="0 0 1200 150" xmlns="http://www.w3.org/2000/svg" xmlns:xlink="http://www.w3.org/1999/xlink">
<!-- Flame graph stack visualization. See https://github.com/brendangregg/FlameGraph for latest version, and http://www.brendangregg.com/flamegraphs.html for examples. -->
<!-- NOTES:  -->
<defs>
	<linearGradient id="background" y1="0" y2="1" x1="0" x2="0" >
		<stop stop-color="#eeeeee" offset="5%" />
		<stop stop-color="#eeeeb0" offset="95%" />
	</linearGradient>
</defs>
<style type="text/css">
	text { font-family:Verdana; font-size:12px; fill:rgb(0,0,0); }
	#search, #ignorecase { opacity:0.1; cursor:pointer; }
	#search:hover, #search.show, #ignorecase:hover, #ignorecase.show { opacity:1; }
	#subtitle { text-anchor:middle; font-color:rgb(160,160,160); }
	#title { text-anchor:middle; font-size:17px}
	#unzoom { cursor:pointer; }
	#frames > *:hover { stroke:black; stroke-width:0.5; cursor:pointer; }
	.hide { display:none; }
	.parent { opacity:0.5; }
</style>
<script type="text/ecmascript">
<![CDATA[
	"use strict";
	var details, searchbtn, unzoombtn, matchedtxt, svg, searching, currentSearchTerm, ignorecase, ignorecaseBtn;
	function init(evt) {
		details = document.getElementById("details").firstChild;
		searchbtn = document.getElementById("search");
		ignorecaseBtn = document.getElementById("ignorecase");
		unzoombtn = document.getElementById("unzoom");
		matchedtxt = document.getElementById("matched");
		svg = document.getElementsByTagName("svg")[0];
		searching = 0;
		currentSearchTerm = null;
	}

	window.addEventListener("click", function(e) {
		var target = find_group(e.target);
		if (target) {
			if (target.nodeName == "a") {
				if (e.ctrlKey === false) return;
				e.preventDefault();
			}
			if (target.classList.contains("parent")) unzoom();
			zoom(target);
		}
		else if (e.target.id == "unzoom") unzoom();
		else if (e.target.id == "search") search_prompt();
		else if (e.target.id == "ignorecase") toggle_ignorecase();
	}, false)

	// mouse-over for info
	// show
	window.addEventListener("mouseover", function(e) {
		var target = find_group(e.target);
		if (target) details.nodeValue = "Function: " + g_to_text(target);
	}, false)

	// clear
	window.addEventListener("mouseout", function(e) {
		var target = find_group(e.target);
		if (target) details.nodeValue = ' ';
	}, false)

	// ctrl-F for search
	window.addEventListener("keydown",function (e) {
		if (e.keyCode === 114 || (e.ctrlKey && e.keyCode === 70)) {
			e.preventDefault();
			search_prompt();
		}
	}, false)

	// ctrl-I to toggle case-sensitive search
	window.addEventListener("keydown",function (e) {
		if (e.ctrlKey && e.keyCode === 73) {
			e.preventDefault();
			toggle_ignorecase();
		}
	}, false)

	// functions
	function find_child(node, selector) {
		var children = node.querySelectorAll(selector);
		if (children.length) return children[0];
		return;
	}
	function find_group(node) {
		var parent = node.parentElement;
		if (!parent) return;
		if (parent.id == "frames") return node;
		return find_group(parent);
	}
	function orig_save(e, attr, val) {
		if (e.attributes["_orig_" + attr] != undefined) return;
		if (e.attributes[attr] == undefined) return;
		if (val == undefined) val = e.attributes[attr].value;
		e.setAttribute("_orig_" + attr, val);
	}
	function orig_load(e, attr) {
		if (e.attributes["_orig_"+attr] == undefined) return;
		e.attributes[attr].value = e.attributes["_orig_" + attr].value;
		e.removeAttribute("_orig_"+attr);
	}
	function g_to_text(e) {
		var text = find_child(e, "title").firstChild.nodeValue;
		return (text)
	}
	function g_to_func(e) {
		var func = g_to_text(e);
		// if there's any manipulation we want to do to the function
		// name before it's searched, do it here before returning.
		return (func);
	}
	function update_text(e) {
		var r = find_child(e, "rect");
		var t = find_child(e, "text");
		var w = parseFloat(r.attributes.width.value) -3;
		var txt = find_child(e, "title").textContent.replace(/\([^(]*\)$/,"");
		t.attributes.x.value = parseFloat(r.attributes.x.value) + 3;

		// Smaller than this size won't fit anything
		if (w < 2 * 12 * 0.59) {
			t.textContent = "";
			return;
		}

		t.textContent = txt;
		// Fit in full text width
		if (/^ *$/.test(txt) || t.getSubStringLength(0, txt.length) < w)
			return;

		for (var x = txt.length - 2; x > 0; x--) {
			if (t.getSubStringLength(0, x + 2) <= w) {
				t.textContent = txt.substring(0, x) + "..";
				return;
			}
		}
		t.textContent = "";
	}

	// zoom
	function zoom_reset(e) {
		if (e.attributes != undefined) {
			orig_load(e, "x");
			orig_load(e, "width");
		}
		if (e.childNodes == undefined) return;
		for (var i = 0, c = e.childNodes; i < c.length; i++) {
			zoom_reset(c[i]);
		}
	}
	function zoom_child(e, x, ratio) {
		if (e.attributes != undefined) {
			if (e.attributes.x != undefined) {
				orig_save(e, "x");
				e.attributes.x.value = (parseFloat(e.attributes.x.value) - x - 10) * ratio + 10;
				if (e.tagName == "text")
					e.attributes.x.value = find_child(e.parentNode, "rect[x]").attributes.x.value + 3;
			}
			if (e.attributes.width != undefined) {
				orig_save(e, "width");
				e.attributes.width.value = parseFloat(e.attributes.width.value) * ratio;
			}
		}

		if (e.childNodes == undefined) return;
		for (var i = 0, c = e.childNodes; i < c.length; i++) {
			zoom_child(c[i], x - 10, ratio);
		}
	}
	function zoom_parent(e) {
		if (e.attributes) {
			if (e.attributes.x != undefined) {
				orig_save(e, "x");
				e.attributes.x.value = 10;
			}
			if (e.attributes.width != undefined) {
				orig_save(e, "width");
				e.attributes.width.value = parseInt(svg.width.baseVal.value) - (10 * 2);
			}
		}
		if (e.childNodes == undefined) return;
		for (var i = 0, c = e.childNodes; i < c.length; i++) {
			zoom_parent(c[i]);
		}
	}
	function zoom(node) {
		var attr = find_child(node, "rect").attributes;
		var width = parseFloat(attr.width.value);
		var xmin = parseFloat(attr.x.value);
		var xmax = parseFloat(xmin + width);
		var ymin = parseFloat(attr.y.value);
		var ratio = (svg.width.baseVal.value - 2 * 10) / width;

		// XXX: Workaround for JavaScript float issues (fix me)
		var fudge = 0.0001;

		unzoombtn.classList.remove("hide");

		var el = document.getElementById("frames").children;
		for (var i = 0; i < el.length; i++) {
			var e = el[i];
			var a = find_child(e, "rect").attributes;
			var ex = parseFloat(a.x.value);
			var ew = parseFloat(a.width.value);
			var upstack;
			// Is it an ancestor
			if (0 == 0) {
				upstack = parseFloat(a.y.value) > ymin;
			} else {
				upstack = parseFloat(a.y.value) < ymin;
			}
			if (upstack) {
				// Direct ancestor
				if (ex <= xmin && (ex+ew+fudge) >= xmax) {
					e.classList.add("parent");
					zoom_parent(e);
					update_text(e);
				}
				// not in current path
				else
					e.classList.add("hide");
			}
			// Children maybe
			else {
				// no common path
				if (ex < xmin || ex + fudge >= xmax) {
					e.classList.add("hide");
				}
				else {
					zoom_child(e, xmin, ratio);
					update_text(e);
				}
			}
		}
		search();
	}
	function unzoom() {
		unzoombtn.classList.add("hide");
		var el = document.getElementById("frames").children;
		for(var i = 0; i < el.length; i++) {
			el[i].classList.remove("parent");
			el[i].classList.remove("hide");
			zoom_reset(el[i]);
			update_text(el[i]);
		}
		search();
	}

	// search
	function toggle_ignorecase() {
		ignorecase = !ignorecase;
		if (ignorecase) {
			ignorecaseBtn.classList.add("show");
		} else {
			ignorecaseBtn.classList.remove("show");
		}
		reset_search();
		search();
	}
	function reset_search() {
		var el = document.querySelectorAll("#frames rect");
		for (var i = 0; i < el.length; i++) {
			orig_load(el[i], "fill")
		}
	}
	function search_prompt() {
		if (!searching) {
			var term = prompt("Enter a search term (regexp " +
			    "allowed, eg: ^ext4_)"
			    + (ignorecase ? ", ignoring case" : "")
			    + "\nPress Ctrl-i to toggle case sensitivity", "");
			if (term != null) {
				currentSearchTerm = term;
				search();
			}
		} else {
			reset_search();
			searching = 0;
			currentSearchTerm = null;
			searchbtn.classList.remove("show");
			searchbtn.firstChild.nodeValue = "Search"
			matchedtxt.classList.add("hide");
			matchedtxt.firstChild.nodeValue = ""
		}
	}
	function search(term) {
		if (currentSearchTerm === null) return;
		var term = currentSearchTerm;

		var re = new RegExp(term, ignorecase ? 'i' : '');
		var el = document.getElementById("frames").children;
		var matches = new Object();
		var maxwidth = 0;
		for (var i = 0; i < el.length; i++) {
			var e = el[i];
			var func = g_to_func(e);
			var rect = find_child(e, "rect");
			if (func == null || rect == null)
				continue;

			// Save max width. Only works as we have a root frame
			var w = parseFloat(rect.attributes.width.value);
			if (w > maxwidth)
				maxwidth = w;

			if (func.match(re)) {
				// highlight
				var x = parseFloat(rect.attributes.x.value);
				orig_save(rect, "fill");
				rect.attributes.fill.value = "rgb(230,0,230)";

				// remember matches
				if (matches[x] == undefined) {
					matches[x] = w;
				} else {
					if (w > matches[x]) {
						// overwrite with parent
						matches[x] = w;
					}
				}
				searching = 1;
			}
		}
		if (!searching)
			return;

		searchbtn.classList.add("show");
		searchbtn.firstChild.nodeValue = "Reset Search";

		// calculate percent matched, excluding vertical overlap
		var count = 0;
		var lastx = -1;
		var lastw = 0;
		var keys = Array();
		for (k in matches) {
			if (matches.hasOwnProperty(k))
				keys.push(k);
		}
		// sort the matched frames by their x location
		// ascending, then width descending
		keys.sort(function(a, b){
			return a - b;
		});
		// Step through frames saving only the biggest bottom-up frames
		// thanks to the sort order. This relies on the tree property
		// where children are always smaller than their parents.
		var fudge = 0.0001;	// JavaScript floating point
		for (var k in keys) {
			var x = parseFloat(keys[k]);
			var w = matches[keys[k]];
			if (x >= lastx + lastw - fudge) {
				count += w;
				lastx = x;
				lastw = w;
			}
		}
		// display matched percent
		matchedtxt.classList.remove("hide");
		var pct = 100 * count / maxwidth;
		if (pct != 100) pct = pct.toFixed(1)
		matchedtxt.firstChild.nodeValue = "Matched: " + pct + "%";
	}
]]>
</script>
<rect x="0.0" y="0" width="1200.0" height="150.0" fill="url(#background)"  />
<text id="title" x="600.00" y="24" >Flame Graph</text>
<text id="details" x="10.00" y="133" > </text>
<text id="unzoom" x="10.00" y="24" class="hide">Reset Zoom</text>
<text id="search" x="1090.00" y="24" >Search</text>
<text id="ignorecase" x="1174.00" y="24" >ic</text>
<text id="matched" x="1090.00" y="133" > </text>
<g id="frames">
<g >
<title>org.eclipse.oomph.ui (2 ms, 0.09%)</title><rect x="1184.2" y="53" width="1.1" height="15.0" fill="rgb(231,179,29)" rx="2" ry="2" />
<text  x="1187.22" y="63.5" ></text>
</g>
<g >
<title>org.eclipse.emf.ecore (36 ms, 1.60%)</title><rect x="914.2" y="69" width="18.9" height="15.0" fill="rgb(246,179,45)" rx="2" ry="2" />
<text  x="917.18" y="79.5" ></text>
</g>
<g >
<title>org.eclipse.ui.workbench.texteditor (3 ms, 0.13%)</title><rect x="1188.4" y="69" width="1.6" height="15.0" fill="rgb(241,179,39)" rx="2" ry="2" />
<text  x="1191.42" y="79.5" ></text>
</g>
<g >
<title>org.eclipse.ecf.provider.filetransfer (5 ms, 0.22%)</title><rect x="885.8" y="69" width="2.6" height="15.0" fill="rgb(241,179,40)" rx="2" ry="2" />
<text  x="888.81" y="79.5" ></text>
</g>
<g >
<title>org.eclipse.core.net (16 ms, 0.71%)</title><rect x="726.1" y="69" width="8.4" height="15.0" fill="rgb(240,179,39)" rx="2" ry="2" />
<text  x="729.09" y="79.5" ></text>
</g>
<g >
<title>org.eclipse.buildship.core (8 ms, 0.36%)</title><rect x="879.0" y="53" width="4.2" height="15.0" fill="rgb(246,179,45)" rx="2" ry="2" />
<text  x="881.98" y="63.5" ></text>
</g>
<g >
<title>org.eclipse.egit.core (193 ms, 8.59%)</title><rect x="543.8" y="69" width="101.4" height="15.0" fill="rgb(246,179,45)" rx="2" ry="2" />
<text  x="546.78" y="79.5" >org.eclipse...</text>
</g>
<g >
<title>org.apache.felix.gogo.shell (7 ms, 0.31%)</title><rect x="695.1" y="69" width="3.7" height="15.0" fill="rgb(227,179,24)" rx="2" ry="2" />
<text  x="698.09" y="79.5" ></text>
</g>
<g >
<title>org.eclipse.egit.ui (119 ms, 5.30%)</title><rect x="22.1" y="53" width="62.5" height="15.0" fill="rgb(231,179,29)" rx="2" ry="2" />
<text  x="25.08" y="63.5" >org.ec..</text>
</g>
<g >
<title>org.eclipse.equinox.preferences (50 ms, 2.23%)</title><rect x="195.5" y="69" width="26.2" height="15.0" fill="rgb(242,179,40)" rx="2" ry="2" />
<text  x="198.46" y="79.5" >o..</text>
</g>
<g >
<title>org.eclipse.core.resources (275 ms, 12.24%)</title><rect x="734.5" y="69" width="144.5" height="15.0" fill="rgb(242,179,40)" rx="2" ry="2" />
<text  x="737.50" y="79.5" >org.eclipse.core.r..</text>
</g>
<g >
<title>org.eclipse.oomph.p2.core (4 ms, 0.18%)</title><rect x="888.4" y="53" width="2.1" height="15.0" fill="rgb(246,179,45)" rx="2" ry="2" />
<text  x="891.43" y="63.5" ></text>
</g>
<g >
<title>org.eclipse.egit.ui (27 ms, 1.20%)</title><rect x="493.3" y="53" width="14.2" height="15.0" fill="rgb(231,179,29)" rx="2" ry="2" />
<text  x="496.35" y="63.5" ></text>
</g>
<g >
<title>org.eclipse.buildship.ui (8 ms, 0.36%)</title><rect x="879.0" y="37" width="4.2" height="15.0" fill="rgb(231,179,29)" rx="2" ry="2" />
<text  x="881.98" y="47.5" ></text>
</g>
<g >
<title>org.eclipse.mylyn.tasks.ui (4 ms, 0.18%)</title><rect x="1073.4" y="37" width="2.1" height="15.0" fill="rgb(231,179,29)" rx="2" ry="2" />
<text  x="1076.37" y="47.5" ></text>
</g>
<g >
<title>org.eclipse.egit.ui (27 ms, 1.20%)</title><rect x="181.3" y="37" width="14.2" height="15.0" fill="rgb(231,179,29)" rx="2" ry="2" />
<text  x="184.27" y="47.5" ></text>
</g>
<g >
<title>org.eclipse.oomph.p2.core (4 ms, 0.18%)</title><rect x="883.7" y="53" width="2.1" height="15.0" fill="rgb(246,179,45)" rx="2" ry="2" />
<text  x="886.70" y="63.5" ></text>
</g>
<g >
<title>org.eclipse.equinox.p2.ui.sdk.scheduler (1 ms, 0.04%)</title><rect x="648.3" y="69" width="0.6" height="15.0" fill="rgb(245,179,44)" rx="2" ry="2" />
<text  x="651.33" y="79.5" ></text>
</g>
<g >
<title>org.eclipse.mylyn.reviews.ui (4 ms, 0.18%)</title><rect x="1073.4" y="69" width="2.1" height="15.0" fill="rgb(231,179,29)" rx="2" ry="2" />
<text  x="1076.37" y="79.5" ></text>
</g>
<g >
<title>org.eclipse.jdt.ui (101 ms, 4.50%)</title><rect x="1014.0" y="69" width="53.1" height="15.0" fill="rgb(231,179,29)" rx="2" ry="2" />
<text  x="1017.00" y="79.5" >org.e..</text>
</g>
<g >
<title>org.eclipse.equinox.app (15 ms, 0.67%)</title><rect x="141.3" y="69" width="7.9" height="15.0" fill="rgb(248,179,47)" rx="2" ry="2" />
<text  x="144.34" y="79.5" ></text>
</g>
<g >
<title>org.eclipse.ui.trace (63 ms, 2.80%)</title><rect x="460.2" y="69" width="33.1" height="15.0" fill="rgb(252,179,52)" rx="2" ry="2" />
<text  x="463.25" y="79.5" >or..</text>
</g>
<g >
<title>org.eclipse.equinox.console (62 ms, 2.76%)</title><rect x="662.5" y="53" width="32.6" height="15.0" fill="rgb(241,179,39)" rx="2" ry="2" />
<text  x="665.52" y="63.5" >or..</text>
</g>
<g >
<title>org.eclipse.ui.navigator (4 ms, 0.18%)</title><rect x="1186.3" y="69" width="2.1" height="15.0" fill="rgb(241,179,39)" rx="2" ry="2" />
<text  x="1189.32" y="79.5" ></text>
</g>
<g >
<title>org.eclipse.mylyn.tasks.ui (182 ms, 8.10%)</title><rect x="1075.5" y="69" width="95.6" height="15.0" fill="rgb(231,179,29)" rx="2" ry="2" />
<text  x="1078.47" y="79.5" >org.eclipse..</text>
</g>
<g >
<title>org.eclipse.oomph.setup.ui (7 ms, 0.31%)</title><rect x="1179.0" y="69" width="3.6" height="15.0" fill="rgb(231,179,29)" rx="2" ry="2" />
<text  x="1181.97" y="79.5" ></text>
</g>
<g >
<title>org.eclipse.ecf (4 ms, 0.18%)</title><rect x="888.4" y="69" width="2.1" height="15.0" fill="rgb(248,179,47)" rx="2" ry="2" />
<text  x="891.43" y="79.5" ></text>
</g>
<g >
<title>main (1,028 ms, 45.77%)</title><rect x="649.9" y="85" width="540.1" height="15.0" fill="rgb(247,83,46)" rx="2" ry="2" />
<text  x="652.91" y="95.5" >main</text>
</g>
<g >
<title>org.eclipse.equinox.console (10 ms, 0.45%)</title><rect x="933.1" y="69" width="5.2" height="15.0" fill="rgb(241,179,39)" rx="2" ry="2" />
<text  x="936.09" y="79.5" ></text>
</g>
<g >
<title>org.eclipse.jdt.ui (144 ms, 6.41%)</title><rect x="938.3" y="53" width="75.7" height="15.0" fill="rgb(231,179,29)" rx="2" ry="2" />
<text  x="941.34" y="63.5" >org.ecli..</text>
</g>
<g >
<title>org.eclipse.mylyn.tasks.ui (16 ms, 0.71%)</title><rect x="726.1" y="53" width="8.4" height="15.0" fill="rgb(231,179,29)" rx="2" ry="2" />
<text  x="729.09" y="63.5" ></text>
</g>
<g >
<title>org.eclipse.buildship.stsmigration (1 ms, 0.04%)</title><rect x="647.8" y="69" width="0.5" height="15.0" fill="rgb(247,179,46)" rx="2" ry="2" />
<text  x="650.81" y="79.5" ></text>
</g>
<g >
<title>org.eclipse.oomph.p2.core (10 ms, 0.45%)</title><rect x="1171.1" y="69" width="5.2" height="15.0" fill="rgb(246,179,45)" rx="2" ry="2" />
<text  x="1174.09" y="79.5" ></text>
</g>
<g >
<title>org.eclipse.update.configurator (49 ms, 2.18%)</title><rect x="508.1" y="69" width="25.7" height="15.0" fill="rgb(241,179,39)" rx="2" ry="2" />
<text  x="511.06" y="79.5" >o..</text>
</g>
<g >
<title>org.eclipse.oomph.setup.core (5 ms, 0.22%)</title><rect x="1176.3" y="69" width="2.7" height="15.0" fill="rgb(246,179,45)" rx="2" ry="2" />
<text  x="1179.34" y="79.5" ></text>
</g>
<g >
<title>org.apache.felix.gogo.runtime (62 ms, 2.76%)</title><rect x="662.5" y="69" width="32.6" height="15.0" fill="rgb(236,179,34)" rx="2" ry="2" />
<text  x="665.52" y="79.5" >or..</text>
</g>
<g >
<title>org.eclipse.debug.core (8 ms, 0.36%)</title><rect x="879.0" y="69" width="4.2" height="15.0" fill="rgb(246,179,45)" rx="2" ry="2" />
<text  x="881.98" y="79.5" ></text>
</g>
<g >
<title>org.eclipse.team.ui (4 ms, 0.18%)</title><rect x="645.7" y="69" width="2.1" height="15.0" fill="rgb(231,179,29)" rx="2" ry="2" />
<text  x="648.71" y="79.5" ></text>
</g>
<g >
<title>org.eclipse.egit.ui (15 ms, 0.67%)</title><rect x="141.3" y="37" width="7.9" height="15.0" fill="rgb(231,179,29)" rx="2" ry="2" />
<text  x="144.34" y="47.5" ></text>
</g>
<g >
<title>org.eclipse.mylyn.gerrit.ui (2 ms, 0.09%)</title><rect x="1071.3" y="69" width="1.0" height="15.0" fill="rgb(231,179,29)" rx="2" ry="2" />
<text  x="1074.26" y="79.5" ></text>
</g>
<g >
<title>org.eclipse.team.core (19 ms, 0.85%)</title><rect x="533.8" y="69" width="10.0" height="15.0" fill="rgb(246,179,45)" rx="2" ry="2" />
<text  x="536.80" y="79.5" ></text>
</g>
<g >
<title>org.eclipse.e4.ui.workbench (27 ms, 1.20%)</title><rect x="181.3" y="53" width="14.2" height="15.0" fill="rgb(246,179,45)" rx="2" ry="2" />
<text  x="184.27" y="63.5" ></text>
</g>
<g >
<title>Worker-4 (19 ms, 0.85%)</title><rect x="533.8" y="85" width="10.0" height="15.0" fill="rgb(246,149,45)" rx="2" ry="2" />
<text  x="536.80" y="95.5" ></text>
</g>
<g >
<title>org.eclipse.mylyn.gerrit.ui (4 ms, 0.18%)</title><rect x="1073.4" y="53" width="2.1" height="15.0" fill="rgb(231,179,29)" rx="2" ry="2" />
<text  x="1076.37" y="63.5" ></text>
</g>
<g >
<title>org.eclipse.oomph.setup.ui (4 ms, 0.18%)</title><rect x="883.7" y="37" width="2.1" height="15.0" fill="rgb(231,179,29)" rx="2" ry="2" />
<text  x="886.70" y="47.5" ></text>
</g>
<g >
<title>org.eclipse.team.core (1 ms, 0.04%)</title><rect x="647.8" y="53" width="0.5" height="15.0" fill="rgb(246,179,45)" rx="2" ry="2" />
<text  x="650.81" y="63.5" ></text>
</g>
<g >
<title>org.eclipse.core.runtime (14 ms, 0.62%)</title><rect x="84.6" y="69" width="7.4" height="15.0" fill="rgb(236,179,34)" rx="2" ry="2" />
<text  x="87.60" y="79.5" ></text>
</g>
<g >
<title>org.eclipse.mylyn.tasks.ui (2 ms, 0.09%)</title><rect x="1071.3" y="53" width="1.0" height="15.0" fill="rgb(231,179,29)" rx="2" ry="2" />
<text  x="1074.26" y="63.5" ></text>
</g>
<g >
<title>org.eclipse.e4.ui.workbench.swt (1 ms, 0.04%)</title><rect x="883.2" y="69" width="0.5" height="15.0" fill="rgb(229,179,27)" rx="2" ry="2" />
<text  x="886.18" y="79.5" ></text>
</g>
<g >
<title>org.eclipse.egit.ui (1 ms, 0.04%)</title><rect x="507.5" y="37" width="0.6" height="15.0" fill="rgb(231,179,29)" rx="2" ry="2" />
<text  x="510.53" y="47.5" ></text>
</g>
<g >
<title>org.eclipse.oomph.setup.ui (5 ms, 0.22%)</title><rect x="885.8" y="37" width="2.6" height="15.0" fill="rgb(231,179,29)" rx="2" ry="2" />
<text  x="888.81" y="47.5" ></text>
</g>
<g >
<title>org.eclipse.ui (1 ms, 0.04%)</title><rect x="507.5" y="69" width="0.6" height="15.0" fill="rgb(231,179,29)" rx="2" ry="2" />
<text  x="510.53" y="79.5" ></text>
</g>
<g >
<title>org.eclipse.egit.core (1 ms, 0.04%)</title><rect x="645.2" y="53" width="0.5" height="15.0" fill="rgb(246,179,45)" rx="2" ry="2" />
<text  x="648.18" y="63.5" ></text>
</g>
<g >
<title>org.eclipse.equinox.registry (454 ms, 20.21%)</title><rect x="221.7" y="69" width="238.5" height="15.0" fill="rgb(243,179,42)" rx="2" ry="2" />
<text  x="224.73" y="79.5" >org.eclipse.equinox.registry</text>
</g>
<g >
<title>Worker-8 (4 ms, 0.18%)</title><rect x="647.8" y="85" width="2.1" height="15.0" fill="rgb(239,149,37)" rx="2" ry="2" />
<text  x="650.81" y="95.5" ></text>
</g>
<g >
<title>org.eclipse.equinox.console (7 ms, 0.31%)</title><rect x="695.1" y="53" width="3.7" height="15.0" fill="rgb(241,179,39)" rx="2" ry="2" />
<text  x="698.09" y="63.5" ></text>
</g>
<g >
<title>org.eclipse.ui.workbench (27 ms, 1.20%)</title><rect x="493.3" y="69" width="14.2" height="15.0" fill="rgb(246,179,45)" rx="2" ry="2" />
<text  x="496.35" y="79.5" ></text>
</g>
<g >
<title>org.eclipse.buildship.core (37 ms, 1.65%)</title><rect x="705.6" y="69" width="19.4" height="15.0" fill="rgb(246,179,45)" rx="2" ry="2" />
<text  x="708.60" y="79.5" ></text>
</g>
<g >
<title>org.eclipse.equinox.frameworkadmin (27 ms, 1.20%)</title><rect x="181.3" y="69" width="14.2" height="15.0" fill="rgb(247,179,46)" rx="2" ry="2" />
<text  x="184.27" y="79.5" ></text>
</g>
<g >
<title>Framework-Event-Dispatcher:-Equinox-Container:-4cb0dcb6-66e9-46ca-ac39-acfd49cc6848 (142 ms, 6.32%)</title><rect x="10.0" y="85" width="74.6" height="15.0" fill="rgb(230,206,27)" rx="2" ry="2" />
<text  x="13.00" y="95.5" >Framewor..</text>
</g>
<g >
<title>org.eclipse.core.jobs (23 ms, 1.02%)</title><rect x="10.0" y="69" width="12.1" height="15.0" fill="rgb(233,179,31)" rx="2" ry="2" />
<text  x="13.00" y="79.5" ></text>
</g>
<g >
<title>org.apache.felix.scr (13 ms, 0.58%)</title><rect x="698.8" y="69" width="6.8" height="15.0" fill="rgb(243,179,41)" rx="2" ry="2" />
<text  x="701.77" y="79.5" ></text>
</g>
<g >
<title>org.eclipse.equinox.common (61 ms, 2.72%)</title><rect x="149.2" y="69" width="32.1" height="15.0" fill="rgb(253,179,53)" rx="2" ry="2" />
<text  x="152.23" y="79.5" >or..</text>
</g>
<g >
<title>org.eclipse.equinox.console (24 ms, 1.07%)</title><rect x="649.9" y="53" width="12.6" height="15.0" fill="rgb(241,179,39)" rx="2" ry="2" />
<text  x="652.91" y="63.5" ></text>
</g>
<g >
<title>org.eclipse.oomph.util (2 ms, 0.09%)</title><rect x="1184.2" y="69" width="1.1" height="15.0" fill="rgb(228,179,26)" rx="2" ry="2" />
<text  x="1187.22" y="79.5" ></text>
</g>
<g >
<title>org.eclipse.buildship.ui (2 ms, 0.09%)</title><rect x="725.0" y="69" width="1.1" height="15.0" fill="rgb(231,179,29)" rx="2" ry="2" />
<text  x="728.04" y="79.5" ></text>
</g>
<g >
<title>org.eclipse.oomph.p2.core (5 ms, 0.22%)</title><rect x="885.8" y="53" width="2.6" height="15.0" fill="rgb(246,179,45)" rx="2" ry="2" />
<text  x="888.81" y="63.5" ></text>
</g>
<g >
<title>org.eclipse.jdt.ui (3 ms, 0.13%)</title><rect x="1188.4" y="53" width="1.6" height="15.0" fill="rgb(231,179,29)" rx="2" ry="2" />
<text  x="1191.42" y="63.5" ></text>
</g>
<g >
<title>Worker-6 (198 ms, 8.82%)</title><rect x="543.8" y="85" width="104.0" height="15.0" fill="rgb(242,149,41)" rx="2" ry="2" />
<text  x="546.78" y="95.5" >Worker-6</text>
</g>
<g >
<title>org.eclipse.oomph.ui (3 ms, 0.13%)</title><rect x="1182.6" y="69" width="1.6" height="15.0" fill="rgb(231,179,29)" rx="2" ry="2" />
<text  x="1185.64" y="79.5" ></text>
</g>
<g >
<title>org.eclipse.jdt.core (144 ms, 6.41%)</title><rect x="938.3" y="69" width="75.7" height="15.0" fill="rgb(246,179,45)" rx="2" ry="2" />
<text  x="941.34" y="79.5" >org.ecli..</text>
</g>
<g >
<title>org.eclipse.egit.ui (94 ms, 4.19%)</title><rect x="92.0" y="69" width="49.3" height="15.0" fill="rgb(231,179,29)" rx="2" ry="2" />
<text  x="94.96" y="79.5" >org...</text>
</g>
<g >
<title>org.eclipse.buildship.ui (37 ms, 1.65%)</title><rect x="705.6" y="53" width="19.4" height="15.0" fill="rgb(231,179,29)" rx="2" ry="2" />
<text  x="708.60" y="63.5" ></text>
</g>
<g >
<title>org.eclipse.mylyn.bugzilla.ui (2 ms, 0.09%)</title><rect x="1067.1" y="69" width="1.0" height="15.0" fill="rgb(231,179,29)" rx="2" ry="2" />
<text  x="1070.06" y="79.5" ></text>
</g>
<g >
<title>org.eclipse.emf.common (45 ms, 2.00%)</title><rect x="890.5" y="69" width="23.7" height="15.0" fill="rgb(253,179,53)" rx="2" ry="2" />
<text  x="893.53" y="79.5" >o..</text>
</g>
<g >
<title>org.eclipse.mylyn.team.ui (2 ms, 0.09%)</title><rect x="648.9" y="69" width="1.0" height="15.0" fill="rgb(231,179,29)" rx="2" ry="2" />
<text  x="651.86" y="79.5" ></text>
</g>
<g >
<title>org.eclipse.core.runtime (15 ms, 0.67%)</title><rect x="141.3" y="53" width="7.9" height="15.0" fill="rgb(236,179,34)" rx="2" ry="2" />
<text  x="144.34" y="63.5" ></text>
</g>
<g >
<title>org.eclipse.mylyn.monitor.ui (2 ms, 0.09%)</title><rect x="1072.3" y="69" width="1.1" height="15.0" fill="rgb(231,179,29)" rx="2" ry="2" />
<text  x="1075.32" y="79.5" ></text>
</g>
<g >
<title>org.eclipse.ui.workbench (1 ms, 0.04%)</title><rect x="507.5" y="53" width="0.6" height="15.0" fill="rgb(246,179,45)" rx="2" ry="2" />
<text  x="510.53" y="63.5" ></text>
</g>
<g >
<title>Start-Level:-Equinox-Container:-4cb0dcb6-66e9-46ca-ac39-acfd49cc6848 (855 ms, 38.07%)</title><rect x="84.6" y="85" width="449.2" height="15.0" fill="rgb(230,172,27)" rx="2" ry="2" />
<text  x="87.60" y="95.5" >Start-Level:-Equinox-Container:-4cb0dcb6-66e9-46ca-ac39-acfd4..</text>
</g>
<g >
<title>org.eclipse.e4.ui.workbench (119 ms, 5.30%)</title><rect x="22.1" y="69" width="62.5" height="15.0" fill="rgb(246,179,45)" rx="2" ry="2" />
<text  x="25.08" y="79.5" >org.ec..</text>
</g>
<g >
<title>org.apache.felix.gogo.command (24 ms, 1.07%)</title><rect x="649.9" y="69" width="12.6" height="15.0" fill="rgb(254,179,54)" rx="2" ry="2" />
<text  x="652.91" y="79.5" ></text>
</g>
<g >
<title>org.eclipse.egit.ui (14 ms, 0.62%)</title><rect x="84.6" y="53" width="7.4" height="15.0" fill="rgb(231,179,29)" rx="2" ry="2" />
<text  x="87.60" y="63.5" ></text>
</g>
<g >
<title>all (2,246 ms, 100%)</title><rect x="10.0" y="101" width="1180.0" height="15.0" fill="rgb(255,230,55)" rx="2" ry="2" />
<text  x="13.00" y="111.5" ></text>
</g>
<g >
<title>org.eclipse.jsch.core (1 ms, 0.04%)</title><rect x="645.2" y="69" width="0.5" height="15.0" fill="rgb(246,179,45)" rx="2" ry="2" />
<text  x="648.18" y="79.5" ></text>
</g>
<g >
<title>org.eclipse.ui.ide (2 ms, 0.09%)</title><rect x="1185.3" y="69" width="1.0" height="15.0" fill="rgb(245,179,44)" rx="2" ry="2" />
<text  x="1188.27" y="79.5" ></text>
</g>
<g >
<title>org.eclipse.mylyn.context.core (6 ms, 0.27%)</title><rect x="1068.1" y="69" width="3.2" height="15.0" fill="rgb(246,179,45)" rx="2" ry="2" />
<text  x="1071.11" y="79.5" ></text>
</g>
<g >
<title>org.eclipse.ecf.identity (4 ms, 0.18%)</title><rect x="883.7" y="69" width="2.1" height="15.0" fill="rgb(240,179,38)" rx="2" ry="2" />
<text  x="886.70" y="79.5" ></text>
</g>
<g >
<title>org.eclipse.oomph.setup.ui (4 ms, 0.18%)</title><rect x="888.4" y="37" width="2.1" height="15.0" fill="rgb(231,179,29)" rx="2" ry="2" />
<text  x="891.43" y="47.5" ></text>
</g>
</g>
</svg>
